<?xml version="1.0" encoding="UTF-8" standalone="no"?>
<!-- Created with Inkscape (http://www.inkscape.org/) -->

<svg
   version="1.1"
   id="svg1"
   width="99.99852"
   height="27.042999"
   viewBox="0 0 99.99852 27.042998"
   sodipodi:docname="github.svg"
   inkscape:version="1.3.2 (091e20ef0f, 2023-11-25, custom)"
   xmlns:inkscape="http://www.inkscape.org/namespaces/inkscape"
   xmlns:sodipodi="http://sodipodi.sourceforge.net/DTD/sodipodi-0.dtd"
   xmlns="http://www.w3.org/2000/svg"
   xmlns:svg="http://www.w3.org/2000/svg">
  <defs
     id="defs1" />
  <sodipodi:namedview
     id="namedview1"
     pagecolor="#ffffff"
     bordercolor="#000000"
     borderopacity="0.25"
     inkscape:showpageshadow="2"
     inkscape:pageopacity="0.0"
     inkscape:pagecheckerboard="0"
     inkscape:deskcolor="#d1d1d1"
     inkscape:zoom="1"
     inkscape:cx="240"
     inkscape:cy="59"
     inkscape:window-width="2514"
     inkscape:window-height="1343"
     inkscape:window-x="20"
     inkscape:window-y="71"
     inkscape:window-maximized="1"
     inkscape:current-layer="g1">
    <inkscape:page
       x="0"
       y="0"
       inkscape:label="1"
       id="page1"
       width="99.99852"
       height="27.042997"
       margin="0"
       bleed="0" />
  </sodipodi:namedview>
  <g
     id="g1"
     inkscape:groupmode="layer"
     inkscape:label="1"
     transform="translate(-143.87733,0.0039873)">
    <g
       id="g16"
       transform="matrix(0.20822383,0,0,0.20822383,113.91864,-0.00315705)">
      <path
         id="path10"
         d="m 236.37466,55.582678 h -40.356 c -1.04133,0 -1.88533,0.845333 -1.88533,1.888 v 19.729333 c 0,1.041333 0.844,1.889333 1.88533,1.889333 h 15.74267 v 24.513336 c 0,0 -3.53467,1.20533 -13.308,1.20533 -11.52933,0 -27.636,-4.21333 -27.636,-39.631999 0,-35.423999 16.772,-40.085332 32.51733,-40.085332 13.63067,0 19.50133,2.398666 23.23867,3.554666 1.17466,0.36 2.26,-0.808 2.26,-1.850666 l 4.50133,-19.0639998 c 0,-0.4866667 -0.16533,-1.0746667 -0.72,-1.4733333 -1.51733,-1.0813333 -10.77467,-6.26133321 -34.16133,-6.26133321 -26.94,0 -54.576,11.46133331 -54.576,66.56266531 0,55.101332 31.64,63.312002 58.30266,63.312002 22.076,0 35.468,-9.43334 35.468,-9.43334 0.552,-0.30533 0.612,-1.076 0.612,-1.43066 V 57.470678 c 0,-1.042667 -0.844,-1.888 -1.88533,-1.888"
         style="fill:#161312;fill-opacity:1;fill-rule:nonzero;stroke:none;stroke-width:0.133333" />
      <path
         id="path11"
         d="m 444.35332,6.5973459 c 0,-1.0493333 -0.832,-1.8973333 -1.87466,-1.8973333 h -22.72267 c -1.03733,0 -1.88133,0.848 -1.88133,1.8973333 0,0.00533 0.007,43.9133321 0.007,43.9133321 h -35.42 V 6.5973459 c 0,-1.0493333 -0.83466,-1.8973333 -1.87466,-1.8973333 h -22.72134 c -1.03333,0 -1.87733,0.848 -1.87733,1.8973333 V 125.50134 c 0,1.04934 0.844,1.90267 1.87733,1.90267 H 380.587 c 1.04,0 1.87466,-0.85333 1.87466,-1.90267 V 74.642677 h 35.42 c 0,0 -0.0627,50.854663 -0.0627,50.858663 0,1.04934 0.84266,1.90267 1.88266,1.90267 h 22.776 c 1.04134,0 1.87334,-0.85333 1.876,-1.90267 V 6.5973459"
         style="fill:#161312;fill-opacity:1;fill-rule:nonzero;stroke:none;stroke-width:0.133333" />
      <path
         id="path12"
         d="m 279.25333,22.200012 c 0,-8.181333 -6.55867,-14.7933328 -14.652,-14.7933328 -8.08534,0 -14.65067,6.6119998 -14.65067,14.7933328 0,8.174667 6.56533,14.804 14.65067,14.804 8.09333,0 14.652,-6.629333 14.652,-14.804"
         style="fill:#161312;fill-opacity:1;fill-rule:nonzero;stroke:none;stroke-width:0.133333" />
      <path
         id="path13"
         d="m 277.62933,100.42001 c 0,-3.048 0,-54.886665 0,-54.886665 0,-1.042667 -0.84134,-1.894667 -1.88,-1.894667 h -22.652 c -1.03867,0 -1.968,1.072 -1.968,2.113334 0,0 0,66.046668 0,78.635998 0,2.31067 1.44,2.99867 3.30266,2.99867 0,0 9.66934,0 20.408,0 2.24,0 2.78934,-1.1 2.78934,-3.036 0,-4.21467 0,-20.72667 0,-23.93067"
         style="fill:#161312;fill-opacity:1;fill-rule:nonzero;stroke:none;stroke-width:0.133333" />
      <path
         id="path14"
         d="m 530.70932,43.817345 h -22.548 c -1.03333,0 -1.876,0.853333 -1.876,1.901333 v 58.302662 c 0,0 -5.72933,4.19067 -13.86,4.19067 -8.12933,0 -10.28667,-3.68933 -10.28667,-11.650666 0,-7.970667 0,-50.842666 0,-50.842666 0,-1.048 -0.84,-1.901333 -1.876,-1.901333 h -22.88533 c -1.032,0 -1.87866,0.853333 -1.87866,1.901333 0,0 0,31.047999 0,54.693332 0,23.64667 13.17866,29.43067 31.30799,29.43067 14.87467,0 26.86667,-8.216 26.86667,-8.216 0,0 0.57067,4.33066 0.82933,4.844 0.25734,0.512 0.93067,1.02933 1.65867,1.02933 l 14.55867,-0.0653 c 1.032,0 1.87866,-0.85334 1.87866,-1.89734 l -0.008,-79.818662 c 0,-1.048 -0.84133,-1.901333 -1.88133,-1.901333"
         style="fill:#161312;fill-opacity:1;fill-rule:nonzero;stroke:none;stroke-width:0.133333" />
      <path
         id="path15"
         d="m 583.44532,108.14001 c -7.82133,-0.23733 -13.12667,-3.78667 -13.12667,-3.78667 V 66.698678 c 0,0 5.23334,-3.208 11.65467,-3.781334 8.12,-0.726666 15.944,1.725334 15.944,21.096 0,20.425336 -3.53067,24.457336 -14.472,24.126666 z m 8.89333,-66.993332 c -12.80666,0 -21.51733,5.714667 -21.51733,5.714667 V 6.5973459 c 0,-1.0493333 -0.84,-1.8973333 -1.87467,-1.8973333 h -22.788 c -1.036,0 -1.87733,0.848 -1.87733,1.8973333 V 125.50134 c 0,1.04934 0.84133,1.90267 1.88,1.90267 0.003,0 15.80533,0 15.81067,0 0.712,0 1.25066,-0.36667 1.64933,-1.00933 0.39333,-0.64 0.96,-5.48267 0.96,-5.48267 0,0 9.31733,8.82933 26.956,8.82933 20.70933,0 32.58533,-10.50266 32.58533,-47.153329 0,-36.651999 -18.968,-41.441333 -31.784,-41.441333"
         style="fill:#161312;fill-opacity:1;fill-rule:nonzero;stroke:none;stroke-width:0.133333" />
      <path
         id="path16"
         d="m 342.93599,43.628012 h -17.04533 c 0,0 -0.0253,-22.513333 -0.0253,-22.517333 0,-0.853333 -0.44,-1.278667 -1.42534,-1.278667 h -23.22666 c -0.904,0 -1.388,0.397334 -1.388,1.265333 v 23.269333 c 0,0 -11.64,2.809334 -12.428,3.037334 -0.78267,0.226666 -1.36,0.949333 -1.36,1.811999 v 14.622667 c 0,1.052 0.84,1.9 1.87866,1.9 h 11.90934 c 0,0 0,15.294666 0,35.178662 0,26.12934 18.328,28.696 30.69466,28.696 5.652,0 12.412,-1.81466 13.528,-2.22666 0.67467,-0.248 1.06667,-0.948 1.06667,-1.70534 l 0.02,-16.08666 c 0,-1.048 -0.88667,-1.89734 -1.884,-1.89734 -0.99467,0 -3.53467,0.404 -6.15067,0.404 -8.37333,0 -11.20933,-3.892 -11.20933,-8.931996 0,-5.034667 -0.001,-33.430666 -0.001,-33.430666 h 17.04666 c 1.03867,0 1.88,-0.848 1.88,-1.9 v -18.316 c 0,-1.049333 -0.84133,-1.894666 -1.88,-1.894666"
         style="fill:#161312;fill-opacity:1;fill-rule:nonzero;stroke:none;stroke-width:0.133333" />
    </g>
  </g>
</svg>
